{
  "accessors": [
    {
      "bufferView": 2,
      "componentType": 5126,
      "count": 2046,
      "max": [
        1.3891299962997437,
        1.361799955368042,
        2.6197400093078613
      ],
      "min": [
        -1.1907399892807007,
        -1.3580499887466431,
        -1.2375400066375732
      ],
      "type": "VEC3"
    },
    {
      "bufferView": 2,
      "byteOffset": 24552,
      "componentType": 5126,
      "count": 2046,
      "max": [
        0.99944204092025757,
        0.9988868236541748,
        0.99775922298431396
      ],
      "min": [
        -0.99875640869140625,
        -0.99905151128768921,
        -0.99974405765533447
      ],
      "type": "VEC3"
    },
    {
      "bufferView": 3,
      "componentType": 5126,
      "count": 2046,
      "max": [
        0.99909764528274536,
        0.99922192096710205,
        0.99897313117980957,
        1
      ],
      "min": [
        -0.99912881851196289,
        -0.99991768598556519,
        -0.99980592727661133,
        -1
      ],
      "type": "VEC4"
    },
    {
      "bufferView": 1,
      "componentType": 5126,
      "count": 2046,
      "max": [
        0.98045998811721802,
        0.95582002401351929
      ],
      "min": [
        0.020059999078512192,
        0.031109999865293503
      ],
      "type": "VEC2"
    },
    {
      "bufferView": 0,
      "componentType": 5125,
      "count": 3360,
      "max": [
        2045
      ],
      "min": [
        0
      ],
      "type": "SCALAR"
    }
  ],
  "asset": {
    "generator": "Sketchfab (OSG glTF plugin)",
    "version": "2.0"
  },
  "bufferViews": [
    {
      "buffer": 0,
      "byteLength": 13440,
      "byteOffset": 0,
      "name": "floatBufferViews",
      "target": 34963
    },
    {
      "buffer": 0,
      "byteLength": 16368,
      "byteOffset": 13440,
      "byteStride": 8,
      "name": "floatBufferViews",
      "target": 34962
    },
    {
      "buffer": 0,
      "byteLength": 49104,
      "byteOffset": 29808,
      "byteStride": 12,
      "name": "floatBufferViews",
      "target": 34962
    },
    {
      "buffer": 0,
      "byteLength": 32736,
      "byteOffset": 78912,
      "byteStride": 16,
      "name": "floatBufferViews",
      "target": 34962
    }
  ],
  "buffers": [
    {
      "byteLength": 111648,
      "uri": "scene.bin"
    }
  ],
  "images": [
    {
      "uri": "textures/Objects_baseColor.png"
    },
    {
      "uri": "textures/Objects_metallicRoughness.png"
    }
  ],
  "materials": [
    {
      "alphaMode": "BLEND",
      "doubleSided": true,
      "emissiveFactor": [
        0,
        0,
        0
      ],
      "name": "Objects",
      "pbrMetallicRoughness": {
        "baseColorFactor": [
          1,
          1,
          1,
          0
        ],
        "baseColorTexture": {
          "index": 0,
          "texCoord": 0
        },
        "metallicFactor": 1,
        "metallicRoughnessTexture": {
          "index": 1,
          "texCoord": 0
        },
        "roughnessFactor": 1
      }
    }
  ],
  "meshes": [
    {
      "name": "VikingShipObjects.033_0",
      "primitives": [
        {
          "attributes": {
            "NORMAL": 1,
            "POSITION": 0,
            "TANGENT": 2,
            "TEXCOORD_0": 3
          },
          "indices": 4,
          "material": 0,
          "mode": 4
        }
      ]
    }
  ],
  "nodes": [
    {
      "children": [
        1
      ],
      "name": "RootNode (gltf orientation matrix)",
      "rotation": [
        -0.70710678118654746,
        -0,
        -0,
        0.70710678118654757
      ]
    },
    {
      "children": [
        2
      ],
      "name": "RootNode (model correction matrix)"
    },
    {
      "children": [
        3
      ],
      "name": "Root"
    },
    {
      "children": [
        4
      ],
      "matrix": [
        0.9676800000000001,
        -0.038370000000000008,
        -0.24925000000000003,
        0,
        0.037180000000000005,
        0.99925999999999993,
        -0.0094900000000000019,
        0,
        0.24943000000000004,
        -9.0000000000000033e-05,
        0.96839000000000008,
        0,
        11.991630000000001,
        0,
        0,
        1
      ],
      "name": "VikingShipObjects.033"
    },
    {
      "children": [
        5
      ],
      "name": "Geode"
    },
    {
      "mesh": 0,
      "name": "VikingShipObjects.033_0"
    }
  ],
  "samplers": [
    {
      "magFilter": 9729,
      "minFilter": 9987,
      "wrapS": 10497,
      "wrapT": 10497
    }
  ],
  "scene": 0,
  "scenes": [
    {
      "name": "OSG_Scene",
      "nodes": [
        0
      ]
    }
  ],
  "textures": [
    {
      "sampler": 0,
      "source": 0
    },
    {
      "sampler": 0,
      "source": 1
    }
  ]
}

