{
  "accessors": [
    {
      "bufferView": 2,
      "componentType": 5126,
      "count": 2593,
      "max": [
        1.219249963760376,
        0.88766998052597046,
        1.3913700580596924
      ],
      "min": [
        -1.0616199970245361,
        -0.82194000482559204,
        -1.5441399812698364
      ],
      "type": "VEC3"
    },
    {
      "bufferView": 2,
      "byteOffset": 31116,
      "componentType": 5126,
      "count": 2593,
      "max": [
        0.99863451719284058,
        0.99785089492797852,
        0.99908202886581421
      ],
      "min": [
        -0.99804294109344482,
        -0.99843162298202515,
        -0.99764865636825562
      ],
      "type": "VEC3"
    },
    {
      "bufferView": 3,
      "componentType": 5126,
      "count": 2593,
      "max": [
        0.99971705675125122,
        0.99941915273666382,
        0.99915164709091187,
        1
      ],
      "min": [
        -0.99993896484375,
        -0.99994093179702759,
        -0.99905157089233398,
        -1
      ],
      "type": "VEC4"
    },
    {
      "bufferView": 1,
      "componentType": 5126,
      "count": 2593,
      "max": [
        0.98344999551773071,
        0.97553002834320068
      ],
      "min": [
        0.022059999406337738,
        0.010940000414848328
      ],
      "type": "VEC2"
    },
    {
      "bufferView": 0,
      "componentType": 5125,
      "count": 3972,
      "max": [
        2592
      ],
      "min": [
        0
      ],
      "type": "SCALAR"
    }
  ],
  "asset": {
    "generator": "Sketchfab (OSG glTF plugin)",
    "version": "2.0"
  },
  "bufferViews": [
    {
      "buffer": 0,
      "byteLength": 15888,
      "byteOffset": 0,
      "name": "floatBufferViews",
      "target": 34963
    },
    {
      "buffer": 0,
      "byteLength": 20744,
      "byteOffset": 15888,
      "byteStride": 8,
      "name": "floatBufferViews",
      "target": 34962
    },
    {
      "buffer": 0,
      "byteLength": 62232,
      "byteOffset": 36632,
      "byteStride": 12,
      "name": "floatBufferViews",
      "target": 34962
    },
    {
      "buffer": 0,
      "byteLength": 41488,
      "byteOffset": 98864,
      "byteStride": 16,
      "name": "floatBufferViews",
      "target": 34962
    }
  ],
  "buffers": [
    {
      "byteLength": 140352,
      "uri": "scene.bin"
    }
  ],
  "images": [
    {
      "uri": "textures/Objects_baseColor.png"
    },
    {
      "uri": "textures/Objects_metallicRoughness.png"
    },
    {
      "uri": "textures/Objects_emissive.png"
    }
  ],
  "materials": [
    {
      "doubleSided": true,
      "emissiveFactor": [
        1,
        1,
        1
      ],
      "emissiveTexture": {
        "index": 2,
        "texCoord": 0
      },
      "name": "Objects",
      "pbrMetallicRoughness": {
        "baseColorFactor": [
          1,
          1,
          1,
          1
        ],
        "baseColorTexture": {
          "index": 0,
          "texCoord": 0
        },
        "metallicFactor": 1,
        "metallicRoughnessTexture": {
          "index": 1,
          "texCoord": 0
        },
        "roughnessFactor": 1
      }
    }
  ],
  "meshes": [
    {
      "name": "VikingShipObjects.095_0",
      "primitives": [
        {
          "attributes": {
            "NORMAL": 1,
            "POSITION": 0,
            "TANGENT": 2,
            "TEXCOORD_0": 3
          },
          "indices": 4,
          "material": 0,
          "mode": 4
        }
      ]
    }
  ],
  "nodes": [
    {
      "children": [
        1
      ],
      "name": "RootNode (gltf orientation matrix)",
      "rotation": [
        -0.70710678118654746,
        -0,
        -0,
        0.70710678118654757
      ]
    },
    {
      "children": [
        2
      ],
      "name": "RootNode (model correction matrix)"
    },
    {
      "children": [
        3
      ],
      "name": "Root"
    },
    {
      "children": [
        4
      ],
      "matrix": [
        1,
        0,
        0,
        0,
        0,
        1,
        0,
        0,
        0,
        0,
        1,
        0,
        -14.473690000000001,
        0,
        0,
        1
      ],
      "name": "VikingShipObjects.095"
    },
    {
      "children": [
        5
      ],
      "name": "Geode"
    },
    {
      "mesh": 0,
      "name": "VikingShipObjects.095_0"
    }
  ],
  "samplers": [
    {
      "magFilter": 9729,
      "minFilter": 9987,
      "wrapS": 10497,
      "wrapT": 10497
    }
  ],
  "scene": 0,
  "scenes": [
    {
      "name": "OSG_Scene",
      "nodes": [
        0
      ]
    }
  ],
  "textures": [
    {
      "sampler": 0,
      "source": 0
    },
    {
      "sampler": 0,
      "source": 1
    },
    {
      "sampler": 0,
      "source": 2
    }
  ]
}

