{
  "accessors": [
    {
      "bufferView": 2,
      "componentType": 5126,
      "count": 206,
      "max": [
        3.5636999607086182,
        0.34307000041007996,
        9.5926103591918945
      ],
      "min": [
        -0.19695000350475311,
        -0.39089998602867126,
        0
      ],
      "type": "VEC3"
    },
    {
      "bufferView": 2,
      "byteOffset": 2472,
      "componentType": 5126,
      "count": 206,
      "max": [
        0.7696230411529541,
        0.98901772499084473,
        0.98862648010253906
      ],
      "min": [
        -0.99792355298995972,
        -0.98901772499084473,
        -0.98862302303314209
      ],
      "type": "VEC3"
    },
    {
      "bufferView": 3,
      "componentType": 5126,
      "count": 206,
      "max": [
        0.99957990646362305,
        0.99791759252548218,
        0.011360147967934608,
        1
      ],
      "min": [
        0.064409010112285614,
        -0.94622969627380371,
        -0.017463058233261108,
        -1
      ],
      "type": "VEC4"
    },
    {
      "bufferView": 1,
      "componentType": 5126,
      "count": 206,
      "max": [
        0.8883100152015686,
        0.84615999460220337
      ],
      "min": [
        0.034749999642372131,
        0.23282000422477722
      ],
      "type": "VEC2"
    },
    {
      "bufferView": 0,
      "componentType": 5125,
      "count": 324,
      "max": [
        205
      ],
      "min": [
        0
      ],
      "type": "SCALAR"
    }
  ],
  "asset": {
    "generator": "Sketchfab (OSG glTF plugin)",
    "version": "2.0"
  },
  "bufferViews": [
    {
      "buffer": 0,
      "byteLength": 1296,
      "byteOffset": 0,
      "name": "floatBufferViews",
      "target": 34963
    },
    {
      "buffer": 0,
      "byteLength": 1648,
      "byteOffset": 1296,
      "byteStride": 8,
      "name": "floatBufferViews",
      "target": 34962
    },
    {
      "buffer": 0,
      "byteLength": 4944,
      "byteOffset": 2944,
      "byteStride": 12,
      "name": "floatBufferViews",
      "target": 34962
    },
    {
      "buffer": 0,
      "byteLength": 3296,
      "byteOffset": 7888,
      "byteStride": 16,
      "name": "floatBufferViews",
      "target": 34962
    }
  ],
  "buffers": [
    {
      "byteLength": 11184,
      "uri": "scene.bin"
    }
  ],
  "images": [
    {
      "uri": "../textures/Material_baseColor.png"
    }
  ],
  "materials": [
    {
      "doubleSided": true,
      "emissiveFactor": [
        0,
        0,
        0
      ],
      "name": "Material",
      "pbrMetallicRoughness": {
        "baseColorFactor": [
          1,
          1,
          1,
          1
        ],
        "baseColorTexture": {
          "index": 0,
          "texCoord": 0
        },
        "metallicFactor": 0,
        "roughnessFactor": 0.59999999999999998
      }
    }
  ],
  "meshes": [
    {
      "name": "FlagPole_0",
      "primitives": [
        {
          "attributes": {
            "NORMAL": 1,
            "POSITION": 0,
            "TANGENT": 2,
            "TEXCOORD_0": 3
          },
          "indices": 4,
          "material": 0,
          "mode": 4
        }
      ]
    }
  ],
  "nodes": [
    {
      "children": [
        1
      ],
      "name": "RootNode (gltf orientation matrix)",
      "rotation": [
        -0.70710678118654746,
        -0,
        -0,
        0.70710678118654757
      ]
    },
    {
      "children": [
        2
      ],
      "name": "RootNode (model correction matrix)"
    },
    {
      "children": [
        3
      ],
      "name": "Root"
    },
    {
      "children": [
        4
      ],
      "matrix": [
        0.93035999999999996,
        -0.36656000000000005,
        0,
        0,
        0.36656000000000005,
        0.93035999999999996,
        0,
        0,
        0,
        0,
        0.99997000000000003,
        0,
        0.58718000000000004,
        -57.731150000000007,
        17.638739999999999,
        1
      ],
      "name": "FlagPole"
    },
    {
      "children": [
        5
      ],
      "name": "Geode"
    },
    {
      "mesh": 0,
      "name": "FlagPole_0"
    }
  ],
  "samplers": [
    {
      "magFilter": 9729,
      "minFilter": 9987,
      "wrapS": 10497,
      "wrapT": 10497
    }
  ],
  "scene": 0,
  "scenes": [
    {
      "name": "OSG_Scene",
      "nodes": [
        0
      ]
    }
  ],
  "textures": [
    {
      "sampler": 0,
      "source": 0
    }
  ]
}

